Coordinates
version=1
nRows=4
nColumns=107
inDegrees=yes

Units are S.I. units (second, meters, Newtons, ...)
If the header above contains a line with 'inDegrees', this indicates whether rotational values are in degrees (yes) or radians (no).

endheader
time	sternoclavicular_r2	sternoclavicular_r3	unrotscap_r3	unrotscap_r2	acromioclavicular_r2	acromioclavicular_r3	acromioclavicular_r1	unrothum_r1	unrothum_r3	unrothum_r2	elv_angle	shoulder_elv	shoulder1_r2	shoulder_rot	elbow_flexion	pro_sup	deviation	flexion	proximal_distal_r1	proximal_distal_r3	cmc_flexion	cmc_abduction	mp_flexion	ip_flexion	mcp2_flexion	mcp2_abduction	pm2_flexion	md2_flexion	mcp3_flexion	mcp3_abduction	pm3_flexion	md3_flexion	mcp4_flexion	mcp4_abduction	pm4_flexion	md4_flexion	mcp5_flexion	mcp5_abduction	pm5_flexion	md5_flexion	bicpt_tx	bicpt_ty	bicpt_tz	bicpt2_tx	bicpt2_ty	bicpt2_tz	ptpt_tx	ptpt_ty	ptpt_tz	FCUpt_tx	FCUpt_ty	FCUpt_tz	EDCpt_tx	EDCpt_ty	EDCpt_tz	APLpt_tx	APLpt_ty	APLpt_tz	FPLpt_tx	FPLpt_ty	FPLpt_tz	FPLpt2_tx	FPLpt2_ty	FPLpt2_tz	PEC1pt2_tx	PEC1pt2_ty	PEC1pt2_tz	PEC1pt3_tx	PEC1pt3_ty	PEC1pt3_tz	PEC2pt2_tx	PEC2pt2_ty	PEC2pt2_tz	PEC2pt3_tx	PEC2pt3_ty	PEC2pt3_tz	PEC3pt2_tx	PEC3pt2_ty	PEC3pt2_tz	PEC3pt3_tx	PEC3pt3_ty	PEC3pt3_tz	DELT2pt2a_tx	DELT2pt2a_ty	DELT2pt2a_tz	DELT2pt2_tx	DELT2pt2_ty	DELT2pt2_tz	LAT1pt2_tx	LAT1pt2_ty	LAT1pt2_tz	LAT1pt3_tx	LAT1pt3_ty	LAT1pt3_tz	LAT2pt2_tx	LAT2pt2_ty	LAT2pt2_tz	LAT2pt3_tx	LAT2pt3_ty	LAT2pt3_tz	LAT3pt2_tx	LAT3pt2_ty	LAT3pt2_tz	LAT3pt3_tx	LAT3pt3_ty	LAT3pt3_tz
      0.00000000	     -0.32248830	      0.13659082	     -0.13659082	      0.32248830	     -0.06529732	      0.52770998	      0.23720200	     -0.23720200	     -0.52770998	      0.06529732	     99.95432562	     76.35197184	     -1.74453208	    -27.22545020	     28.82727323	     73.02629970	      0.34391372	     -0.72269470	      0.36992935	     -0.36134735	     26.50825771	    -22.15832655	     -4.25724673	    -16.74433526	     88.94347435	     11.81732434	     75.53067106	     73.46285815	     88.78580562	      1.56820090	     82.03171613	     52.37356551	     86.68506846	    -13.02302074	     85.12141969	     42.84370021	     88.05115943	    -13.93881505	     86.57233269	      5.51730902	      0.00085352	     -0.03090405	     -0.00483220	      0.01538846	     -0.01803107	     -0.00317978	      0.00215418	     -0.06838903	     -0.00593266	      0.01127360	     -0.18265318	     -0.00021017	     -0.00876314	      0.00289204	     -0.00038624	      0.00030203	      0.00012081	      0.00060406	      0.00038660	      0.00115979	      0.00065238	     -0.00000278	     -0.00027233	     -0.00032680	      0.00250265	      0.00878048	      0.00610816	     -0.00818664	      0.01976669	     -0.01874867	      0.00250265	      0.00878048	      0.00610816	      0.00055143	      0.01832449	     -0.00962884	      0.00395494	      0.00488272	      0.01598472	      0.00000000	      0.00779659	      0.00000000	     -0.00716861	     -0.03312830	     -0.00642874	      0.01759668	     -0.00066353	     -0.00619583	     -0.00089077	      0.01493106	     -0.00610816	      0.00246023	      0.02154824	     -0.01781548	     -0.00598091	      0.01293743	     -0.00547190	     -0.01247083	      0.02731706	     -0.03058323	     -0.02341462	      0.01446447	     -0.00733828	     -0.01552491	      0.03155884	     -0.03821844
      0.03333333	     -0.32260020	      0.13663822	     -0.13663822	      0.32260020	     -0.06531998	      0.52789308	      0.23728431	     -0.23728431	     -0.52789308	      0.06531998	     99.93653185	     76.37846445	     -1.74422152	    -27.23948611	     28.82606527	     73.02382381	      0.34392358	     -0.72269730	      0.36993690	     -0.36134865	     26.50912962	    -22.15997781	     -4.25711404	    -16.74415849	     88.94670402	     11.81706393	     75.53083336	     73.46199440	     88.78550014	      1.56801080	     82.03129795	     52.37338610	     86.68367673	    -13.02306304	     85.12289198	     42.84402947	     88.05190156	    -13.93920547	     86.57267514	      5.51739650	      0.00085348	     -0.03090391	     -0.00483217	      0.01538862	     -0.01803074	     -0.00318014	      0.00215436	     -0.06838891	     -0.00593246	      0.01127333	     -0.18265326	     -0.00021020	     -0.00876284	      0.00289191	     -0.00038619	      0.00030203	      0.00012081	      0.00060405	      0.00038659	      0.00115978	      0.00065238	     -0.00000279	     -0.00027232	     -0.00032679	      0.00250352	      0.00878353	      0.00611028	     -0.00818948	      0.01977355	     -0.01875517	      0.00250352	      0.00878353	      0.00611028	      0.00055162	      0.01833085	     -0.00963218	      0.00395594	      0.00488441	      0.01598716	      0.00000000	      0.00780204	      0.00000000	     -0.00717110	     -0.03313980	     -0.00643326	      0.01760332	     -0.00066400	     -0.00620227	     -0.00089108	      0.01493625	     -0.00611028	      0.00246109	      0.02155572	     -0.01782166	     -0.00598298	      0.01294192	     -0.00547379	     -0.01247516	      0.02732654	     -0.03059384	     -0.02342275	      0.01446949	     -0.00734083	     -0.01553030	      0.03156979	     -0.03823170
      0.06666667	     -0.31945567	      0.13530634	     -0.13530634	      0.31945567	     -0.06468327	      0.52274748	      0.23497139	     -0.23497139	     -0.52274748	      0.06468327	    100.95779463	     75.63396947	     -1.76204592	    -31.69087533	     28.78193179	     76.17858557	      0.32043608	     -0.76346681	      0.35083319	     -0.38173340	     28.66691723	    -22.50348929	     -6.68039742	    -14.97646325	     90.95176673	     11.86668720	     75.55404114	     67.80540707	     89.48102122	      1.61918044	     81.24846769	     52.25172979	     86.09353266	    -12.97033101	     87.01558915	     42.70804160	     88.31012969	    -13.97947415	     87.02801894	      5.55616395	      0.00085202	     -0.03089885	     -0.00483136	      0.01514484	     -0.01801875	     -0.00269035	      0.00192126	     -0.06853964	     -0.00618659	      0.01162463	     -0.18255664	     -0.00015041	     -0.00914141	      0.00305393	     -0.00046798	      0.00029302	      0.00011721	      0.00058605	      0.00037507	      0.00112521	      0.00063293	     -0.00000658	     -0.00026012	     -0.00031215	      0.00247912	      0.00869791	      0.00605072	     -0.00810965	      0.01958081	     -0.01857236	      0.00247912	      0.00869791	      0.00605072	      0.00054625	      0.01815217	     -0.00953829	      0.00392771	      0.00483680	      0.01591798	      0.00000000	      0.00764964	      0.00000000	     -0.00710120	     -0.03281677	     -0.00630674	      0.01960849	     -0.00081521	     -0.00833920	     -0.00088240	      0.01479066	     -0.00605072	      0.00243710	      0.02134560	     -0.01764794	     -0.00592467	      0.01281577	     -0.00542044	     -0.01235356	      0.02706018	     -0.03029563	     -0.02319444	      0.01432845	     -0.00726927	     -0.01537892	      0.03126207	     -0.03785904
      0.10000000	     -0.31951224	      0.13533030	     -0.13533030	      0.31951224	     -0.06469473	      0.52284004	      0.23501300	     -0.23501300	     -0.52284004	      0.06469473	    100.94917702	     75.64736238	     -1.76189552	    -31.69751864	     28.78315850	     76.17754013	      0.32044655	     -0.76346617	      0.35084188	     -0.38173309	     28.66771270	    -22.50440470	     -6.67978882	    -14.97617932	     90.95321828	     11.86649590	     75.55424179	     67.80516221	     89.48053280	      1.61908400	     81.24825158	     52.25176927	     86.09255694	    -12.97024707	     87.01658385	     42.70833723	     88.31002668	    -13.97959623	     87.02800679	      5.55618551	      0.00085206	     -0.03089899	     -0.00483138	      0.01514487	     -0.01801909	     -0.00269048	      0.00192134	     -0.06853959	     -0.00618651	      0.01162452	     -0.18255667	     -0.00015041	     -0.00914128	      0.00305388	     -0.00046797	      0.00029300	      0.00011720	      0.00058600	      0.00037504	      0.00112511	      0.00063288	     -0.00000658	     -0.00026012	     -0.00031214	      0.00247955	      0.00869945	      0.00605179	     -0.00811109	      0.01958428	     -0.01857565	      0.00247955	      0.00869945	      0.00605179	      0.00054634	      0.01815538	     -0.00953998	      0.00392822	      0.00483766	      0.01591923	      0.00000000	      0.00765237	      0.00000000	     -0.00710245	     -0.03282258	     -0.00630900	      0.01961125	     -0.00081544	     -0.00834260	     -0.00088255	      0.01479327	     -0.00605179	      0.00243753	      0.02134938	     -0.01765107	     -0.00592572	      0.01281804	     -0.00542140	     -0.01235575	      0.02706497	     -0.03030100	     -0.02319854	      0.01433098	     -0.00727056	     -0.01538164	      0.03126760	     -0.03786574
